<svg id="Ebene_1" xmlns="http://www.w3.org/2000/svg" viewBox="0 0 64 64"><defs><style>.cls-1{fill:#2e2d2d;}.cls-2{fill:none;}</style></defs><g id="g10"><g id="g12"><path id="path14" class="cls-1" d="M40.6,43.06c-3.84,0-6.06-2-6.75-6.09,1.12.15,2.28.27,3.44.32.48,3.36,2.07,5,3.75,5.76ZM33.73,32.68c0-.28.05-.58.06-.67.93-4.78,8.9-6.64,13.16-6.64-4,.95-8.29,2.78-9.2,6.24-.09.33-.23.93-.34,1.45-.78-.08-1.19-.1-1.54-.12A17.35,17.35,0,0,1,33.73,32.68Zm24.2-7.2A.24.24,0,0,0,58,25a44,44,0,0,0-8-.68c-7.22,0-15.88,1.55-17,7.52,0,.22-.13,1.35-.15,1.57.66.11,1.14.19,1.52.24a6.56,6.56,0,0,0-.07.9c0,.56,0,1.07,0,1.56-.47-.06-.94-.12-1.43-.2.58,6.18,4,7.94,7.53,8h.25a18.62,18.62,0,0,0,6.18-1.25.24.24,0,0,0-.11-.47c-3.27.45-8.36-.11-7.23-8.32.94-6.79,13.91-8.15,18.49-8.42"/><path id="path16" class="cls-1" d="M27.37,30c-.16.6-.42,1.71-.6,2.57-1.49-.17-2.42-.26-3.18-.33-1.11-.11-1.79-.18-3.25-.38.05-.55.12-1.29.15-1.46,1.85-9.62,18-10.66,24.91-10.66.53,0,1,0,1.55,0-8.37.78-17.76,3.26-19.58,10.24Zm3.86,17.68c-6.18,0-9.79-3.44-10.75-10.23a51.49,51.49,0,0,0,6.14.58c.78,6.38,4.1,8.75,7.47,9.43a19.57,19.57,0,0,1-2.86.22ZM19.61,30.28c-.06.34-.19,2-.23,2.38,1,.14,1.69.24,2.28.31a11.32,11.32,0,0,0-.08,1.19c0,.92,0,1.78.05,2.59l-2.16-.3c.9,9.58,6.25,12.16,11.76,12.16a20.15,20.15,0,0,0,2.69-.19A29.12,29.12,0,0,0,42,46.17a.24.24,0,0,0-.14-.46c-4.66.91-14.32,1.22-12.41-12.55C31,22.4,52.41,20.81,58.37,20.58a.24.24,0,0,0,0-.48,63.4,63.4,0,0,0-13-1.21c-10.94,0-24,2.36-25.79,11.39"/><path id="path18" class="cls-1" d="M3.89,25.14v0"/><path id="path20" class="cls-1" d="M3.87,25.24v.09l0-.17v.08"/><path id="path22" class="cls-1" d="M3.57,26.83c0-.2.07-.41.11-.6,0,.19-.08.4-.11.6"/><path id="path24" class="cls-1" d="M3.7,26.07c0-.19.07-.37.1-.53,0,.16-.06.34-.1.53"/><path id="path26" class="cls-1" d="M44.32,13.28c-16.46,0-26.67,4.28-29.53,12.38-.32.91-.95,2.85-1.34,4.15-.9-.2-1.63-.35-2.25-.47l-2.29-.45a46.4,46.4,0,0,1-5.49-1.24.31.31,0,0,0,0-.13c.12-.65.29-1.63.4-2.17l0-.06v-.05a.6.6,0,0,0,0-.12.46.46,0,0,1,0-.09v0C7,14,21.36,11.68,32.82,11.68h0a104.46,104.46,0,0,1,19.28,1.9c-2.39-.17-5-.3-7.78-.3ZM16.79,49.23a13.39,13.39,0,0,0,8,3.72,35.14,35.14,0,0,1-4.62.32c-11.14,0-17-6.08-17.3-18.09a78.88,78.88,0,0,0,9.72,1.91c.08,5.34,1.48,9.43,4.17,12.14ZM3.8,25.54c0,.16-.06.34-.1.53C3.74,25.88,3.77,25.7,3.8,25.54Zm-.12.69c0,.19-.08.4-.11.6C3.6,26.63,3.64,26.42,3.68,26.23Zm58.17-11c-4.93-1.89-17-4.44-29-4.44-13.4,0-26.69,3.18-29.75,14-.14.5-.57,3.06-.67,3.56,1.45.37,2.49.63,3.3.82-.1.5-.19,1-.25,1.53-.16,1.48-.24,2.85-.28,4.16L2,34c0,16.18,9.22,20.12,18.2,20.12A34.56,34.56,0,0,0,24,53.94a53.85,53.85,0,0,0,10.42-2.39.24.24,0,0,0-.11-.47c-6.48.8-22.09.64-17.21-20.81C20.91,13.7,54.4,15.14,61.74,15.66a.24.24,0,0,0,.11-.46"/><path id="path28" class="cls-1" d="M3.92,25v0a.46.46,0,0,0,0,.09v0c0-.06,0-.1,0-.14"/></g></g><rect class="cls-2" width="64" height="64"/></svg>
