<svg width="30" height="30" viewBox="0 0 30 32" fill="none" xmlns="http://www.w3.org/2000/svg">
    <path d="M24.682 16.1641C17.7247 16.1641 15.8323 18.1786 15.8323 21.0336C15.8323 21.0336 16.4167 21.1351 16.6115 21.1641C16.5558 21.5988 16.5698 22.0481 16.5837 22.4829C16.3471 22.4539 16.0967 22.4104 15.8462 22.3815C15.8462 25.2945 17.3629 26.6713 20.5633 26.6713C21.3286 26.6713 23.0401 26.309 23.0401 25.8597C23.0401 25.4539 19.0744 27.1641 19.0744 22.4394C19.0744 16.3815 27.2562 17.28 27.2562 16.7728C27.2701 16.28 25.5865 16.1641 24.682 16.1641ZM19.8675 26.193C17.7108 26.193 16.3889 24.6858 16.3889 22.9322L18.156 23.1061C18.156 25.5409 19.9371 26.193 19.8675 26.193ZM18.2256 20.8452L16.3332 20.6423C16.3332 17.9901 19.0466 16.6133 24.2924 16.6133C21.913 16.6133 18.2256 18.0626 18.2256 20.8452Z" fill="#2E3340"/>
    <path d="M20.3832 13.1501C14.6225 13.1501 8.94531 15.1357 8.94531 20.6284C8.94531 20.6284 9.82193 20.7588 10.1141 20.7878C10.0307 21.4545 10.0585 22.1501 10.1002 22.8168L8.98706 22.6574C8.98706 25.3386 10.5594 29.1646 15.4991 29.1646C16.2922 29.1646 20.0353 28.4545 20.0353 27.9762C20.0353 27.5849 19.1587 27.8023 18.8665 27.8023C14.9008 27.8023 13.9963 24.8603 13.9963 22.7009C13.9963 19.8893 14.7756 14.4255 27.5214 14.4255C27.6744 14.4255 28.5789 14.5849 28.5789 14.1067C28.5789 13.6284 24.3767 13.1501 20.3832 13.1501ZM16.5149 28.5849C16.0279 28.6574 15.513 28.7009 15.026 28.7009C11.8535 28.7009 9.51581 25.9328 9.51581 23.2226L12.6744 23.527C12.6744 23.527 12.911 24.8748 13.0084 25.1791C13.1336 25.5704 13.2867 25.9473 13.4815 26.3096C14.1494 27.527 15.2208 28.3096 16.5149 28.5849ZM12.7858 20.5994L9.43233 20.2226C9.43233 15.9617 14.4416 13.5704 20.564 13.5704C22.846 13.5704 25.0167 13.8603 25.0167 13.8603C25.0167 13.8603 12.7858 14.411 12.7858 20.5994Z" fill="#2E3340"/>
    <path d="M15.6818 8.55566C6.7486 8.55566 0.20872 12.0629 0.20872 18.2948C0.20872 18.2948 1.48887 18.6281 1.90631 18.7296C1.7115 19.7296 1.65584 20.7586 1.64193 21.7731L0 21.3673C0 31.5122 6.63729 31.889 10.3942 31.889C12.6345 31.889 16.3219 31.3093 16.3219 30.7586C16.3219 30.4252 15.7653 30.6136 14.5547 30.6136C13.4972 30.6136 7.26345 30.3528 7.26345 22.9325C7.26345 13.3238 15.0278 11.2078 25.6169 11.2078C29.179 11.2078 30 12.0049 30 11.2803C30.0139 10.4107 22.5696 8.55566 15.6818 8.55566ZM12.0918 31.4687C8.72448 31.4687 0.459183 32.0629 0.459183 21.9904C2.00371 22.3962 3.74304 22.802 5.45454 23.0194C5.46846 30.7731 12.0918 31.4687 12.0918 31.4687ZM21.4425 10.1499C6.06679 10.1499 5.81632 19.1064 5.81632 19.1064C5.81632 19.1064 2.46289 18.4542 0.765306 17.947C0.695732 17.947 0.751391 9.12088 16.0575 9.12088C22.0825 9.12088 26.0065 10.2658 26.0065 10.2658C24.7681 10.1789 22.82 10.1499 21.4425 10.1499Z" fill="#2E3340"/>
</svg>
